# xmcd
#
# Track frame offsets:
#	150
#	14965
#	33542
#	49339
#	66945
#	79171
#	97695
#	116764
#	135251
#	147945
#	163395
#	177465
#	190903
#	203949
#	217225
#	235208
#
# Disc length: 3400 seconds
#
# Revision: 1
# Processed by: cddbd v1.5.2PL0 Copyright (c) Steve Scherf et al.
# Submitted via: audiograbber 1.83.01
#
DISCID=f60d4610
DTITLE=Diversos - Minas ao Luar
DYEAR=2017
DGENRE=Serestas
TTITLE0=Que pena
TTITLE1=Vatapa
TTITLE2=Doce de coco
TTITLE3=Pedacinhos do Ceu
TTITLE4=Aperto de Mao
TTITLE5=O mundo e um Moinho
TTITLE6=A Noite do Meu Bem
TTITLE7=Acontece
TTITLE8=Sabes Mentir
TTITLE9=Diz que Fui por Ai
TTITLE10=Odeon
TTITLE11=Praça Vaz de Melo-Adeus Lagoinha 
TTITLE12=Paz do Meu Amor
TTITLE13=Se todos Fossem Iguais e Você
TTITLE14=A Saudade Mata a gente
TTITLE15=Meu Primeiro Amor
EXTD=
EXTT0=
EXTT1=
EXTT2=
EXTT3=
EXTT4=
EXTT5=
EXTT6=
EXTT7=
EXTT8=
EXTT9=
EXTT10=
EXTT11=
EXTT12=
EXTT13=
EXTT14=
EXTT15=
PLAYORDER=
